<?xml version="1.0" encoding="utf-8"?>
<!-- Generator: Adobe Illustrator 19.0.0, SVG Export Plug-In . SVG Version: 6.00 Build 0)  -->
<svg version="1.1" id="Layer_1" xmlns="http://www.w3.org/2000/svg" xmlns:xlink="http://www.w3.org/1999/xlink" x="0px" y="0px"
	 viewBox="0 0 500 500" style="enable-background:new 0 0 500 500;" xml:space="preserve">
<style type="text/css">
	.st0{fill:#6772E5;}
</style>
<g id="XMLID_1_">
	<path id="XMLID_2_" class="st0" d="M93.2,233.6c0-4,3.2-5.5,8.6-5.5c7.7,0,17.4,2.3,25.1,6.5v-23.8c-8.4-3.3-16.7-4.7-25.1-4.7
		c-20.6,0-34.3,10.7-34.3,28.7c0,28,38.5,23.5,38.5,35.6c0,4.7-4.1,6.2-9.7,6.2c-8.4,0-19.2-3.4-27.7-8.1v24.1
		c9.4,4.1,19,5.8,27.7,5.8c21.1,0,35.6-10.4,35.6-28.6C131.8,239.6,93.2,244.9,93.2,233.6z M161.7,185.8l-24.7,5.3l-0.1,81.2
		c0,15,11.3,26.1,26.3,26.1c8.3,0,14.4-1.5,17.7-3.3v-20.6c-3.2,1.3-19.3,6-19.3-9v-36h19.3v-21.6h-19.3L161.7,185.8z M212.4,215.3
		l-1.6-7.5h-21.9v88.7h25.3v-60.1c6-7.8,16.1-6.4,19.3-5.3v-23.3C230.2,206.6,218.4,204.4,212.4,215.3z M239.7,207.8h25.4v88.7
		h-25.4V207.8z M239.7,200.1l25.4-5.5v-20.6l-25.4,5.4V200.1z M318,206.1c-9.9,0-16.3,4.7-19.9,7.9l-1.3-6.3h-22.3v118.2l25.3-5.4
		l0.1-28.7c3.7,2.6,9,6.4,17.9,6.4c18.1,0,34.7-14.6,34.7-46.7C352.5,222.1,335.8,206.1,318,206.1z M311.9,276c-6,0-9.5-2.1-12-4.8
		l-0.1-37.6c2.6-2.9,6.3-5,12.1-5c9.2,0,15.6,10.3,15.6,23.6C327.6,265.8,321.3,276,311.9,276z M432.5,252.5
		c0-26-12.6-46.4-36.6-46.4c-24.1,0-38.7,20.5-38.7,46.2c0,30.5,17.2,45.9,42,45.9c12.1,0,21.2-2.7,28.1-6.6v-20.3
		c-6.9,3.4-14.8,5.6-24.8,5.6c-9.8,0-18.6-3.4-19.7-15.4h49.6C432.3,260.2,432.5,255,432.5,252.5z M382.4,242.9
		c0-11.5,7-16.2,13.4-16.2c6.2,0,12.8,4.8,12.8,16.2H382.4z"/>
</g>
</svg>
